<svg width="60" height="40" viewBox="0 0 60 40" fill="none" xmlns="http://www.w3.org/2000/svg">
<rect width="60" height="40" rx="20" fill="#703BF7"/>
<path d="M26.2918 28.1251C33.8371 28.1251 37.9652 21.8724 37.9652 16.4517C37.9652 16.2759 37.9613 16.0962 37.9535 15.9204C38.7566 15.3397 39.4496 14.6203 40 13.7962C39.2521 14.129 38.458 14.3463 37.6449 14.4407C38.5011 13.9275 39.1421 13.1213 39.4492 12.1716C38.6438 12.6489 37.763 12.9856 36.8445 13.1673C36.2257 12.5098 35.4075 12.0744 34.5164 11.9285C33.6253 11.7826 32.711 11.9343 31.9148 12.3602C31.1186 12.7861 30.4848 13.4624 30.1115 14.2845C29.7382 15.1067 29.6462 16.029 29.8496 16.9087C28.2187 16.8269 26.6233 16.4032 25.1667 15.6652C23.71 14.9272 22.4247 13.8913 21.3941 12.6247C20.8703 13.5278 20.71 14.5965 20.9459 15.6135C21.1817 16.6306 21.7959 17.5197 22.6637 18.1001C22.0122 18.0794 21.375 17.904 20.8047 17.5884V17.6392C20.8041 18.5869 21.1317 19.5056 21.7319 20.2391C22.3321 20.9726 23.1678 21.4756 24.0969 21.6626C23.4934 21.8277 22.86 21.8518 22.2457 21.7329C22.5079 22.548 23.018 23.2609 23.7048 23.7721C24.3916 24.2833 25.2209 24.5673 26.077 24.5845C24.6237 25.726 22.8285 26.3452 20.9805 26.3423C20.6527 26.3418 20.3253 26.3217 20 26.2821C21.8774 27.4866 24.0613 28.1263 26.2918 28.1251Z" fill="white"/>
</svg>
