<svg width="610" height="435" viewBox="0 0 610 435" fill="none" xmlns="http://www.w3.org/2000/svg">
<g clip-path="url(#clip0_144_10057)">
<g style="mix-blend-mode:color-dodge">
<path d="M-474.314 557.072C-326.649 516.381 -201.24 556.574 -61.3054 602.585C8.10085 625.404 77.3202 642.487 149.656 623.783C259.709 595.332 331.443 508.754 423.936 450.418C574.136 355.713 641.07 566.611 772.11 593.462C828.841 605.1 860.925 568.918 911.068 551.44C974.573 529.307 1033.19 569.168 1084.21 603.23" stroke="#4D4D4D" stroke-miterlimit="10"/>
<path d="M-474.314 528.372C-331.034 482.09 -221.023 534.108 -89.442 585.669C-18.3941 613.496 53.4643 636.066 129.167 613.06C241.402 578.956 314.548 486.059 407.333 421.448C565.076 311.614 616.861 546.307 752.348 573.906C810.014 585.648 845.61 545.497 894.984 525.899C964.723 498.217 1028.75 545.33 1084.21 584.048" stroke="#4D4D4D" stroke-miterlimit="10"/>
<path d="M-474.314 500.191C-410.124 475.731 -347.471 470.099 -281.078 489.842C-219.776 508.068 -167.14 544.873 -109.287 570.913C-40.9615 601.671 29.2345 628.646 104.002 604.144C222.762 565.219 294.246 459.521 391.165 389.401C548.098 275.847 593.753 517.898 722.591 550.547C787.82 567.069 825.62 519.166 881.082 497.261C956.037 467.646 1026.07 522.927 1084.21 564.803" stroke="#4D4D4D" stroke-miterlimit="10"/>
<path d="M-474.314 472.987C-416.545 446.823 -358.984 438.676 -297.973 459.126C-237.876 479.264 -189.063 521.659 -133.704 551.004C-69.3059 585.149 -3.03738 619.419 71.0653 597.556C195.311 560.938 273.299 442.23 369.72 365.419C534.134 234.428 561.419 497.843 696.117 528.164C765.232 543.73 808.268 488.179 867.617 466.524C947.455 437.408 1024.03 501.023 1084.19 545.538" stroke="#4D4D4D" stroke-miterlimit="10"/>
<path d="M-474.314 447.155C-340.801 375.456 -260.61 460.269 -151.866 528.809C-90.107 567.734 -23.6099 612.769 52.072 587.705C174.634 547.118 255.262 425.084 348.171 343.93C408.143 291.559 465.559 279.401 516.928 345.655C561.481 403.097 590.095 485.831 669.372 502.477C738.405 516.963 787.155 460.103 846.379 436.93C933.532 402.806 1019.81 477.414 1084.21 526.315" stroke="#4D4D4D" stroke-miterlimit="10"/>
<path d="M-474.314 423.131C-344.998 341.852 -264.412 426.248 -162.423 502.851C-108.02 543.709 -46.4267 600.299 27.0733 581.117C71.8133 569.438 111.483 536.249 145.646 506.946C211.312 450.647 265.818 384.227 328.159 324.748C387.924 267.721 446.836 245.277 498.08 320.508C536.274 376.579 565.575 463.199 642.358 475.44C715.359 487.078 768.785 424.44 832.81 402.785C925.157 371.529 1018.25 455.53 1084.21 507.029" stroke="#4D4D4D" stroke-miterlimit="10"/>
<path d="M-474.314 401.351C-423.901 365.086 -368.272 342.33 -306.846 364.421C-252.152 384.102 -209.635 429.823 -167.597 467.917C-120.218 510.853 -60.3703 587.082 12.3608 572.098C53.2981 563.66 89.3104 532.321 119.899 505.636C187.414 446.719 246.597 378.47 307.296 312.819C364.109 251.345 427.074 207.12 480.064 292.681C515.744 350.268 543.444 441.357 624.362 444.557C696.179 447.404 750.145 390.046 814.876 368.889C914.165 336.448 1014.89 431.797 1084.23 487.805" stroke="#4D4D4D" stroke-miterlimit="10"/>
<path d="M-474.314 381.359C-422.571 341.041 -364.927 314.274 -299.573 337.508C-244.422 357.106 -198.747 401.788 -157.976 441.96C-115.584 483.753 -58.6871 565.842 10.7192 551.835C49.5576 544 83.7205 512.598 112.356 487.119C177.835 428.825 236.31 362.364 295.472 297.876C349.646 238.834 413.276 185.008 467.014 270.174C502.174 325.891 528.877 414.818 608.278 415.919C679.472 416.896 738.841 365.211 805.317 347.504C908.783 319.926 1009.9 410.329 1084.21 468.083" stroke="#4D4D4D" stroke-miterlimit="10"/>
<path d="M-474.314 359.08C-417.231 314.17 -356.324 290.021 -286.543 321.194C-228.836 346.985 -178.299 395.782 -133.642 438.988C-93.5773 477.767 -43.9331 543.211 19.2391 522.823C57.7866 510.375 91.3053 477.123 120.065 450.397C177.71 396.841 231.282 338.838 285.664 282.02C337.49 227.84 400.371 175.137 456.083 250.68C495.711 304.423 520.939 390.378 600.049 394.306C670.515 397.797 738.654 351.308 806.585 338.838C909.323 319.968 1004.87 390.794 1084.23 445.368" stroke="#4D4D4D" stroke-miterlimit="10"/>
<path d="M-474.314 334.328C-412.929 287.485 -350.381 266.89 -278.668 303.882C-223.724 332.209 -173.02 377.826 -127.823 419.452C-85.7015 458.253 -33.9793 525.109 29.6708 495.515C62.8986 480.074 90.2455 450.667 116.346 425.791C171.247 373.42 223.177 317.89 276.791 264.23C332.253 208.721 395.093 165.681 452.634 239.478C492.241 290.291 520.772 370.282 595.872 373.607C664.967 376.683 733.604 343.577 801.037 332.562C905.125 315.562 997.535 368.64 1084.23 419.785" stroke="#4D4D4D" stroke-miterlimit="10"/>
<path d="M-474.314 307.561C-403.516 256.478 -335.98 244.923 -260.589 292.452C-206.414 326.597 -156.334 372.859 -107.853 414.569C-67.3733 449.4 -21.8436 504.078 34.8036 472.406C65.1428 455.447 90.391 425.209 114.558 400.748C166.011 348.647 216.112 295.279 269.06 244.674C323.92 192.24 386.718 154.396 445.111 220.65C488.708 270.111 518.902 349.001 593.815 356.15C659.834 362.447 731.776 336.635 796.714 326.577C900.491 310.512 991.8 347.193 1084.19 391.978" stroke="#4D4D4D" stroke-miterlimit="10"/>
<path d="M-474.314 279.276C-397.614 227.674 -327.086 222.146 -250.219 276.138C-192.222 316.871 -140.104 368.349 -84.9535 412.989C-47.0294 443.664 -5.07389 485.727 42.326 450.48C73.6628 427.183 99.2434 392.082 125.26 363.486C169.252 315.167 214.346 267.493 262.743 223.559C322.05 169.712 386.365 144.275 446.088 209.178C489.81 256.686 523.307 330.837 595.145 338.88C663.138 346.486 736.659 328.634 804.008 319.386C903.047 305.794 991.197 327.928 1084.21 362.364" stroke="#4D4D4D" stroke-miterlimit="10"/>
<path d="M-474.314 249.911C-386.871 195.233 -312.54 201.052 -232.265 265.144C-171.358 313.775 -119.449 370.365 -55.9649 416.252C-12.4094 447.716 18.9898 465.485 58.7425 421.635C126.299 347.11 181.014 262.173 260.166 197.914C318.268 150.759 382.188 133.177 440.082 188.063C488.999 234.428 521.915 305.607 592.527 322.316C657.715 337.716 739.527 322.524 805.068 313.588C901.8 300.391 989.099 308.143 1084.23 331.585" stroke="#4D4D4D" stroke-miterlimit="10"/>
<path d="M-474.314 219.964C-376.398 162.833 -296.663 181.392 -214.103 254.525C-154.962 306.917 -105.775 367.58 -38.6549 410.62C10.6153 442.23 36.5492 447.82 70.2549 397.486C123.66 317.744 177.419 236.236 255.221 177.423C318.123 129.852 381.856 119.17 443.324 174.014C494.506 219.694 530.934 293.18 603.312 309.348C667.502 323.688 742.415 316.871 807.125 308.06C901.073 295.258 989.327 289.48 1084.23 300.059" stroke="#4D4D4D" stroke-miterlimit="10"/>
<path d="M-474.314 189.913C-367.587 130.995 -284.091 160.028 -199.495 240.642C-139.627 297.689 -90.2732 367.372 -16.5654 407.814C38.1492 437.845 57.3502 422.237 83.4503 370.76C124.969 288.899 177.481 206.165 254.389 152.837C319.494 107.678 385.347 106.285 446.503 158.178C499.847 203.463 538.706 275.037 610.169 295.112C763.445 338.173 930.249 273.811 1084.23 268.47" stroke="#4D4D4D" stroke-miterlimit="10"/>
<path d="M-474.314 160.215C-421.221 131.93 -371.306 115.138 -311.895 135.733C-262.75 152.775 -222.498 188.541 -186.445 224.972C-126.971 285.116 -76.1218 366.042 3.11357 401.787C62.5453 428.597 76.6136 392.477 96.6666 342.08C129.354 259.866 178.707 175.635 255.823 127.504C423.894 22.5742 484.552 234.885 618.274 280.918C774.438 334.682 931.516 266.849 1084.23 237.275" stroke="#4D4D4D" stroke-miterlimit="10"/>
<path d="M-474.314 131.348C-418.935 102.046 -367.898 85.7107 -307.407 107.968C-256.661 126.631 -215.641 164.766 -178.881 203.4C-121.07 264.147 -61.2847 369.305 24.9537 393.496C85.3205 410.433 94.8379 353.947 110.132 308.475C136.897 228.88 183.03 141.116 260.208 99.0114C420.424 11.6013 501.114 208.139 622.076 263.69C780.776 336.573 934.446 261.84 1084.21 207.017" stroke="#4D4D4D" stroke-miterlimit="10"/>
<path d="M-474.314 103.812C-418.395 73.3868 -368.023 56.865 -306.472 78.4161C-255.435 96.2889 -213.729 136.17 -177.447 175.033C-118.576 238.107 -55.4662 357.916 36.0712 375.789C98.2875 387.947 107.015 325.787 120.606 279.11C143.942 199.036 185.96 110.4 266.608 73.1582C427.053 -0.930391 513.582 187.751 631.926 248.768C693.54 280.523 773.316 296.796 841.953 285.74C928.96 271.732 1008.53 220.172 1084.23 178.337" stroke="#4D4D4D" stroke-miterlimit="10"/>
<path d="M-474.314 78.0421C-414.758 43.6059 -357.197 23.7589 -291.261 53.519C-241.783 75.8599 -202.529 116.926 -167.057 156.786C-113.9 216.514 -46.9047 342.35 42.513 351.786C109.821 358.893 118.32 285.386 132.741 235.758C155.039 159.051 195.186 76.8159 276.001 47.222C435.24 -11.1137 527.318 163.81 642.213 232.163C700.273 266.703 776.163 290.353 844.073 281.895C935.049 270.548 1013.79 204.71 1084.19 151.611" stroke="#4D4D4D" stroke-miterlimit="10"/>
<path d="M-474.314 54.5374C-418.083 18.7088 -362.724 -6.22982 -296.289 20.6C-243.05 42.1096 -200.658 87.7682 -164.085 130.434C-111.802 191.43 -46.0527 316.664 46.8354 318.867C113.062 320.425 125.323 245.859 140.95 196.064C165.117 119.129 203.332 44.4996 288.095 22.7406C450.41 -18.9485 540.534 140.991 656.676 217.719C713.531 255.294 789.358 286.28 858.619 276.284C949.2 263.191 1021.97 187.897 1084.21 127.504" stroke="#4D4D4D" stroke-miterlimit="10"/>
<path d="M-474.314 33.7758C-422.696 -3.65295 -369.083 -35.0133 -303.438 -13.0257C-252.277 4.09881 -211.984 46.0373 -177.551 85.8145C-121.153 150.946 -64.4225 266.807 32.6632 274.205C106.475 279.817 125.655 208.076 146.893 151.32C175.86 73.8855 216.237 8.3176 304.948 -3.67374C462.213 -24.934 552.836 110.296 662.099 195.42C716.876 238.086 791.041 278.944 862.713 271.961C957.783 262.692 1027.75 174.284 1084.21 106.514" stroke="#4D4D4D" stroke-miterlimit="10"/>
<path d="M-474.314 17.3995C-422.945 -18.4499 -369.976 -47.9606 -305.641 -27.0121C-255.539 -10.6981 -215.662 29.3908 -181.644 67.9626C-126.847 130.06 -68.8487 249.267 25.4524 252.53C98.3706 255.044 123.328 190.453 149.469 133.676C182.988 60.9175 228.352 -5.68956 314.382 -17.3068C466.141 -37.7981 560.941 88.537 668.645 169.338C721.489 208.97 796.028 249.288 863.897 247.957C958.78 246.087 1029.06 155.83 1084.21 89.9502" stroke="#4D4D4D" stroke-miterlimit="10"/>
<path d="M-474.314 6.19788C-423.756 -28.4045 -371.556 -57.1048 -308.487 -38.0267C-259.758 -23.2921 -220.462 14.2406 -186.985 50.9836C-133.06 110.192 -75.3114 228.152 15.935 228.713C87.4817 229.15 117.946 172.206 149.179 116.739C187.331 48.9885 237.412 -16.0183 320.388 -27.407C466.66 -47.4618 565.471 65.8429 673.238 141.262C725.562 177.88 799.291 218.738 864.043 224.515C958.448 232.932 1029.87 141.781 1084.19 78.2706" stroke="#4D4D4D" stroke-miterlimit="10"/>
<path d="M-474.314 -0.743423C-425.813 -33.8911 -373.966 -62.5498 -313.392 -47.1709C-261.752 -34.0781 -220.732 4.97169 -185.572 42.7746C-132.125 100.237 -78.5324 206.975 10.7607 203.005C78.3176 200.013 112.751 148.722 148.036 98.2423C191.363 36.2282 243.667 -21.9205 323.006 -33.1845C467.076 -53.655 568.006 44.2916 680.095 114.161C731.88 146.457 797.587 184.759 857.247 200.2C953.959 225.222 1027.6 134.59 1084.21 70.5811" stroke="#4D4D4D" stroke-miterlimit="10"/>
<path d="M-474.314 -4.31792C-427.143 -36.9668 -376.398 -66.249 -316.82 -54.1329C-267.218 -44.0328 -226.904 -9.28489 -192.346 25.6085C-138.151 80.3073 -87.6965 178.545 -1.18798 174.7C64.4363 171.791 103.898 128.605 144.046 82.0738C192.152 26.3359 247.677 -26.6172 323.962 -37.715C461.943 -57.7906 567.674 20.5168 681.072 82.8219C737.345 113.746 796.527 151.549 855.606 176.571C950.717 216.867 1025.48 129.665 1084.19 66.0507" stroke="#4D4D4D" stroke-miterlimit="10"/>
<path d="M-474.314 -5.41942C-375.068 -75.788 -289.224 -75.4348 -199.1 8.00588C-143.762 59.2341 -96.7359 147.164 -13.2613 144.171C50.2226 141.885 94.36 106.888 139.1 65.8013C191.82 17.3995 249.901 -29.4229 323.151 -40.3128C454.629 -59.8689 565.949 -3.2373 680.365 50.4847C743.35 80.0579 794.304 117.154 852.967 153.128C945.605 209.926 1021.22 128.834 1084.23 63.8893" stroke="#4D4D4D" stroke-miterlimit="10"/>
<path d="M-474.314 -4.94135C-381.946 -72.6083 -296.934 -85.7426 -205.459 -10.4279C-148.666 36.3321 -104.923 112.935 -24.836 111.356C108.511 108.737 190.635 -21.8789 320.969 -41.5804C445.818 -60.4507 563.102 -26.9913 677.934 17.3372C748.13 44.4372 792.33 82.822 849.268 129.644C938.582 203.089 1014.49 131.245 1084.21 63.1412" stroke="#4D4D4D" stroke-miterlimit="10"/>
<path d="M-474.314 -3.77764C-389.842 -68.161 -305.495 -95.4272 -213.23 -31.6466C-156.188 7.7773 -114.358 73.657 -40.6498 76.1924C91.8871 80.7853 190.511 -23.0427 317.707 -42.8898C433.765 -60.9911 557.803 -50.9533 669.767 -17.3692C749.481 6.55114 790.189 50.0483 846.379 108.114C867.367 129.811 890.974 152.401 922.498 155.809C985.213 162.563 1043.88 100.404 1084.21 63.0788" stroke="#4D4D4D" stroke-miterlimit="10"/>
<path d="M-474.314 -2.82165C-395.723 -65.1268 -311.771 -104.717 -217.449 -52.5535C-159.098 -20.2787 -118.514 34.5032 -48.9204 38.5558C80.5618 46.0997 189.638 -23.2921 314.195 -42.6404C425.931 -59.9936 552.545 -74.458 664.136 -50.5169C749.979 -32.1038 788.589 19.2491 840.623 84.8793C860.551 110.026 883.119 138.955 916.056 146.852C979.685 162.106 1042.46 99.4061 1084.19 62.8502" stroke="#4D4D4D" stroke-miterlimit="10"/>
<path d="M-474.314 -2.98787C-397.614 -66.1658 -312.373 -115.066 -213.625 -72.9201C-159.783 -49.9349 -119.719 -7.80935 -59.8093 -1.94876C68.9456 10.6661 186.022 -23.5623 311.743 -42.0169C377.991 -51.743 443.262 -61.3859 508.948 -74.6242C560.006 -84.9114 609.629 -90.2524 661.538 -82.8124C751.226 -69.969 789.109 -5.87657 835.615 63.9517C854.234 91.9038 876.615 126.61 910.445 137.729C975.28 159.051 1039.95 98.367 1084.21 61.5202" stroke="#4D4D4D" stroke-miterlimit="10"/>
<path d="M-474.314 -5.14916C-400.44 -67.953 -315.158 -126.143 -214.186 -99.2303C-160.656 -84.9529 -117.454 -51.7429 -61.825 -44.7185C65.0805 -28.7162 182.656 -25.0793 309.457 -42.7442C376.598 -52.0962 439.542 -65.8748 503.587 -88.0703C552.899 -105.153 600.215 -119.16 653.081 -115.42C747.215 -108.769 785.451 -33.0597 827.947 40.4678C846.047 71.7866 867.908 112.083 902.985 127.317C969.066 156.017 1037.16 95.707 1084.25 58.3613" stroke="#4D4D4D" stroke-miterlimit="10"/>
<path d="M-474.314 -10.1993C-401.479 -73.5851 -316.529 -138.322 -214.353 -128.512C-159.492 -123.255 -109.287 -97.3184 -54.822 -89.2964C69.6729 -70.9457 179.185 -29.0696 307.067 -44.677C374.728 -52.9483 435.531 -70.6132 496.501 -100.831C542.425 -123.587 586.189 -146.614 638.805 -147.279C741.085 -148.526 779.716 -59.183 820.903 19.6232C838.69 53.6645 860.073 97.9514 896.314 116.198C963.559 150.073 1034.46 90.4074 1084.21 52.4383" stroke="#4D4D4D" stroke-miterlimit="10"/>
<path d="M-474.314 -19.0318C-399.983 -84.475 -314.805 -153.43 -211.63 -160.247C-156.001 -163.925 -97.4424 -147.383 -43.3097 -136.16C78.4423 -110.931 179.809 -34.182 309.104 -48.1477C375.58 -55.3176 434.285 -76.9519 490.017 -113.445C534.986 -142.894 576.193 -174.462 632.03 -177.725C736.534 -183.814 774.812 -80.0484 812.944 -1.30457C831.064 36.0827 851.865 81.3048 889.228 103.438C956.328 143.174 1033.69 80.3904 1084.21 42.9824" stroke="#4D4D4D" stroke-miterlimit="10"/>
<path d="M-474.314 -32.5817C-347.118 -144.307 -213.064 -230.449 -39.9017 -188.594C83.3672 -158.792 178.313 -42.8897 312.055 -53.8211C379.819 -59.37 436.903 -86.5739 488.459 -129.655C528.835 -163.385 564.806 -200.377 619.894 -206.342C724.96 -217.71 763.466 -111.429 799.478 -32.7895C819.136 10.1258 840.415 63.8063 883.077 89.3684C951.86 130.58 1031.74 67.2561 1084.19 29.1" stroke="#4D4D4D" stroke-miterlimit="10"/>
<path d="M-474.314 -50.9948C-351.918 -155.571 -194.466 -271.245 -23.2359 -223.279C96.9575 -189.612 187.768 -61.4067 319.868 -68.1817C385.929 -71.5692 442.056 -103.22 488.688 -148.069C525.676 -183.627 558.738 -223.737 613.141 -229.763C713.925 -240.965 754.946 -136.056 790.459 -61.469C811.718 -16.8496 833.994 37.7661 877.716 65.2194C947.725 109.174 1028.58 49.1548 1084.19 10.4167" stroke="#4D4D4D" stroke-miterlimit="10"/>
<path d="M-474.314 -70.2392C-351.482 -170.368 -190.227 -280.929 -21.6981 -239.406C102.173 -208.898 200.298 -81.6694 334.414 -90.3771C395.197 -94.3258 446.129 -123.857 488.812 -165.505C522.871 -198.736 552.732 -236.601 602.46 -244.727C701.644 -260.937 750.644 -153.389 789.129 -82.0642C811.24 -41.1233 835.22 6.32257 875.347 32.7368C945.522 78.9357 1024.49 27.7906 1084.21 -10.6565" stroke="#4D4D4D" stroke-miterlimit="10"/>
<path d="M-474.314 -89.4835C-349.155 -186.079 -180.044 -292.9 -12.7626 -250.338C108.865 -219.393 212.974 -103.262 344.223 -110.39C400.184 -113.425 449.184 -143.247 488.313 -181.195C519.671 -211.6 547.579 -247.823 592.631 -257.362C690.257 -278.02 746.405 -169.641 788.922 -101.974C814.481 -61.3028 841.205 -16.5379 885.093 6.46804C954.541 42.8577 1023.61 2.68566 1084.21 -33.2884" stroke="#4D4D4D" stroke-miterlimit="10"/>
<path d="M-474.314 -108.728C-345.144 -202.31 -171.919 -300.589 -4.80373 -259.191C115.66 -229.348 224.196 -121.821 353.428 -130.653C405.483 -134.207 449.974 -160.372 487.171 -195.348C518.445 -224.755 546.54 -260.604 591.218 -268.855C684.043 -286.021 744.514 -184.25 789.815 -121.197C815.811 -85.0153 843.366 -48.106 882.994 -26.1808C951.943 11.9338 1021.43 -22.9596 1084.21 -57.2087" stroke="#4D4D4D" stroke-miterlimit="10"/>
</g>
</g>
<defs>
<clipPath id="clip0_144_10057">
<rect width="1560" height="1042" fill="white" transform="translate(-475 -303)"/>
</clipPath>
</defs>
</svg>
