 <svg
      width="24"
      height="24"
      viewBox="0 0 24 24"
      fill="none"
      xmlns="http://www.w3.org/2000/svg">
      <path
        fill-rule="evenodd"
        clip-rule="evenodd"
        d="M20.3984 12C20.3984 12.497 19.9955 12.9 19.4984 12.9L6.73287 12.9L11.7222 17.6512C12.0805 17.9957 12.0917 18.5655 11.7472 18.9238C11.4027 19.2821 10.8329 19.2932 10.4746 18.9487L3.87464 12.6487C3.69816 12.4791 3.5984 12.2448 3.5984 12C3.5984 11.7552 3.69816 11.5209 3.87464 11.3512L10.4746 5.05119C10.8329 4.70668 11.4027 4.71784 11.7472 5.07613C12.0917 5.43442 12.0805 6.00416 11.7222 6.34867L6.73287 11.1L19.4984 11.1C19.9955 11.1 20.3984 11.5029 20.3984 12Z"
        fill="white" />
    </svg>
