<svg width="48" height="48" viewBox="0 0 48 48" fill="none" xmlns="http://www.w3.org/2000/svg">
<rect x="0.5" y="0.5" width="47" height="47" rx="23.5" stroke="url(#paint0_linear_172_4559)"/>
<rect x="0.5" y="0.5" width="47" height="47" rx="23.5" stroke="url(#paint1_linear_172_4559)"/>
<rect x="6.5" y="6.5" width="35" height="35" rx="17.5" stroke="url(#paint2_linear_172_4559)"/>
<rect x="6.5" y="6.5" width="35" height="35" rx="17.5" stroke="url(#paint3_linear_172_4559)"/>
<path fill-rule="evenodd" clip-rule="evenodd" d="M21.5 17.75C21.7791 17.75 22.0243 17.935 22.101 18.2033L22.7786 20.5751C23.0752 21.6133 23.8867 22.4248 24.9249 22.7214L27.2967 23.399C27.565 23.4757 27.75 23.7209 27.75 24C27.75 24.2791 27.565 24.5243 27.2967 24.601L24.9249 25.2786C23.8867 25.5752 23.0752 26.3867 22.7786 27.4249L22.101 29.7967C22.0243 30.065 21.7791 30.25 21.5 30.25C21.2209 30.25 20.9757 30.065 20.899 29.7967L20.2214 27.4249C19.9248 26.3867 19.1133 25.5752 18.0751 25.2786L15.7033 24.601C15.435 24.5243 15.25 24.2791 15.25 24C15.25 23.7209 15.435 23.4757 15.7033 23.399L18.0751 22.7214C19.1133 22.4248 19.9248 21.6133 20.2214 20.5751L20.899 18.2033C20.9757 17.935 21.2209 17.75 21.5 17.75Z" fill="#A685FA"/>
<path fill-rule="evenodd" clip-rule="evenodd" d="M29 15.25C29.2868 15.25 29.5368 15.4452 29.6063 15.7234L29.8221 16.5863C30.018 17.37 30.63 17.982 31.4137 18.1779L32.2766 18.3937C32.5548 18.4632 32.75 18.7132 32.75 19C32.75 19.2868 32.5548 19.5368 32.2766 19.6063L31.4137 19.8221C30.63 20.018 30.018 20.63 29.8221 21.4137L29.6063 22.2766C29.5368 22.5548 29.2868 22.75 29 22.75C28.7132 22.75 28.4632 22.5548 28.3937 22.2766L28.1779 21.4137C27.982 20.63 27.37 20.018 26.5863 19.8221L25.7234 19.6063C25.4452 19.5368 25.25 19.2868 25.25 19C25.25 18.7132 25.4452 18.4632 25.7234 18.3937L26.5863 18.1779C27.37 17.982 27.982 17.37 28.1779 16.5863L28.3937 15.7234C28.4632 15.4452 28.7132 15.25 29 15.25Z" fill="#A685FA"/>
<path fill-rule="evenodd" clip-rule="evenodd" d="M27.75 26.5C28.019 26.5 28.2579 26.6721 28.3429 26.9274L28.6715 27.913C28.7959 28.2862 29.0888 28.5791 29.462 28.7035L30.4476 29.0321C30.7029 29.1171 30.875 29.356 30.875 29.625C30.875 29.894 30.7029 30.1329 30.4476 30.2179L29.462 30.5465C29.0888 30.6709 28.7959 30.9638 28.6715 31.337L28.3429 32.3226C28.2579 32.5779 28.019 32.75 27.75 32.75C27.481 32.75 27.2421 32.5779 27.1571 32.3226L26.8285 31.337C26.7041 30.9638 26.4112 30.6709 26.038 30.5465L25.0524 30.2179C24.7971 30.1329 24.625 29.894 24.625 29.625C24.625 29.356 24.7971 29.1171 25.0524 29.0321L26.038 28.7035C26.4112 28.5791 26.7041 28.2862 26.8285 27.913L27.1571 26.9274C27.2421 26.6721 27.481 26.5 27.75 26.5Z" fill="#A685FA"/>
<defs>
<linearGradient id="paint0_linear_172_4559" x1="3.95122" y1="50.6341" x2="50.1951" y2="-3.21951" gradientUnits="userSpaceOnUse">
<stop stop-color="#A685FA"/>
<stop offset="0.323723" stop-color="#A685FA" stop-opacity="0"/>
</linearGradient>
<linearGradient id="paint1_linear_172_4559" x1="47.8537" y1="-6.14634" x2="3.95122" y2="48" gradientUnits="userSpaceOnUse">
<stop stop-color="#A685FA"/>
<stop offset="0.576615" stop-color="#A685FA" stop-opacity="0"/>
</linearGradient>
<linearGradient id="paint2_linear_172_4559" x1="2.08064" y1="8.03226" x2="41.8548" y2="42" gradientUnits="userSpaceOnUse">
<stop stop-color="#A685FA"/>
<stop offset="0.323723" stop-color="#A685FA" stop-opacity="0"/>
</linearGradient>
<linearGradient id="paint3_linear_172_4559" x1="49.1129" y1="50.129" x2="7.30645" y2="20.5161" gradientUnits="userSpaceOnUse">
<stop stop-color="#A685FA"/>
<stop offset="0.576615" stop-color="#A685FA" stop-opacity="0"/>
</linearGradient>
</defs>
</svg>
