<svg width="289" height="48" viewBox="0 0 289 48" fill="none" xmlns="http://www.w3.org/2000/svg">
<rect x="0.5" y="0.5" width="47" height="47" rx="23.5" stroke="url(#paint0_linear_172_5114)"/>
<rect x="0.5" y="0.5" width="47" height="47" rx="23.5" stroke="url(#paint1_linear_172_5114)"/>
<rect x="6.5" y="6.5" width="35" height="35" rx="17.5" stroke="url(#paint2_linear_172_5114)"/>
<rect x="6.5" y="6.5" width="35" height="35" rx="17.5" stroke="url(#paint3_linear_172_5114)"/>
<path fill-rule="evenodd" clip-rule="evenodd" d="M24.8028 15.9047C24.7013 15.7686 24.5489 15.6797 24.3805 15.6583C24.2121 15.6369 24.0422 15.685 23.9099 15.7914C22.3515 17.0454 21.2645 18.8647 20.961 20.9385C20.4139 20.5419 19.9333 20.0586 19.5397 19.5089C19.4314 19.3576 19.2613 19.2625 19.0758 19.2493C18.8902 19.2362 18.7085 19.3063 18.5799 19.4407C17.2921 20.7869 16.5 22.6139 16.5 24.6246C16.5 28.7667 19.8579 32.1246 24 32.1246C28.1421 32.1246 31.5 28.7667 31.5 24.6246C31.5 21.5738 29.6786 18.9499 27.0665 17.7783C26.1422 17.327 25.3789 16.6772 24.8028 15.9047ZM27.125 25.8749C27.125 27.6008 25.7259 28.9999 24 28.9999C22.2741 28.9999 20.875 27.6008 20.875 25.8749C20.875 25.5338 20.9297 25.2055 21.0307 24.8981C21.5544 25.2853 22.1564 25.5727 22.8086 25.7321C22.9885 24.5648 23.5721 23.5307 24.4124 22.7769C25.9434 22.9787 27.125 24.2888 27.125 25.8749Z" fill="#A685FA"/>
<path d="M61.08 30.5V17.9H65.715C66.399 17.9 67.014 18.068 67.56 18.404C68.106 18.74 68.538 19.193 68.856 19.763C69.18 20.327 69.342 20.957 69.342 21.653C69.342 22.241 69.231 22.778 69.009 23.264C68.793 23.75 68.487 24.164 68.091 24.506C67.701 24.848 67.254 25.094 66.75 25.244L69.792 30.5H67.623L64.671 25.415H62.952V30.5H61.08ZM62.952 23.543H65.517C65.877 23.543 66.204 23.453 66.498 23.273C66.798 23.093 67.035 22.853 67.209 22.553C67.383 22.253 67.47 21.914 67.47 21.536C67.47 21.158 67.383 20.819 67.209 20.519C67.035 20.213 66.798 19.973 66.498 19.799C66.204 19.619 65.877 19.529 65.517 19.529H62.952V23.543ZM77.0902 30.734C76.2382 30.734 75.4372 30.566 74.6872 30.23C73.9372 29.888 73.2772 29.417 72.7072 28.817C72.1372 28.217 71.6902 27.524 71.3662 26.738C71.0422 25.946 70.8802 25.1 70.8802 24.2C70.8802 23.3 71.0422 22.457 71.3662 21.671C71.6902 20.879 72.1372 20.183 72.7072 19.583C73.2772 18.983 73.9372 18.515 74.6872 18.179C75.4372 17.837 76.2382 17.666 77.0902 17.666C77.9482 17.666 78.7522 17.837 79.5022 18.179C80.2522 18.515 80.9122 18.983 81.4822 19.583C82.0522 20.183 82.4962 20.879 82.8142 21.671C83.1382 22.457 83.3002 23.3 83.3002 24.2C83.3002 25.1 83.1382 25.946 82.8142 26.738C82.4962 27.524 82.0522 28.217 81.4822 28.817C80.9122 29.417 80.2522 29.888 79.5022 30.23C78.7522 30.566 77.9482 30.734 77.0902 30.734ZM77.0902 28.862C77.6902 28.862 78.2512 28.739 78.7732 28.493C79.2952 28.247 79.7542 27.911 80.1502 27.485C80.5522 27.053 80.8642 26.558 81.0862 26C81.3142 25.436 81.4282 24.836 81.4282 24.2C81.4282 23.564 81.3142 22.964 81.0862 22.4C80.8642 21.836 80.5522 21.341 80.1502 20.915C79.7542 20.483 79.2952 20.147 78.7732 19.907C78.2512 19.661 77.6902 19.538 77.0902 19.538C76.4902 19.538 75.9292 19.661 75.4072 19.907C74.8852 20.153 74.4232 20.492 74.0212 20.924C73.6252 21.35 73.3132 21.845 73.0852 22.409C72.8632 22.967 72.7522 23.564 72.7522 24.2C72.7522 24.842 72.8632 25.445 73.0852 26.009C73.3132 26.567 73.6252 27.062 74.0212 27.494C74.4232 27.92 74.8852 28.256 75.4072 28.502C75.9292 28.742 76.4902 28.862 77.0902 28.862ZM85.2738 30.5V17.9H87.1458V30.5H85.2738ZM98.1194 17.9H100.306L104.887 30.5H102.907L102.034 28.106H96.3914L95.5274 30.5H93.5384L98.1194 17.9ZM97.0844 26.234H101.341L99.2084 20.384L97.0844 26.234ZM108.692 30.671C108.218 30.641 107.756 30.545 107.306 30.383C106.856 30.221 106.46 30.002 106.118 29.726C105.782 29.444 105.53 29.114 105.362 28.736L106.955 28.052C107.033 28.214 107.168 28.373 107.36 28.529C107.558 28.685 107.789 28.814 108.053 28.916C108.317 29.012 108.593 29.06 108.881 29.06C109.163 29.06 109.424 29.021 109.664 28.943C109.91 28.859 110.111 28.733 110.267 28.565C110.423 28.397 110.501 28.196 110.501 27.962C110.501 27.698 110.411 27.494 110.231 27.35C110.057 27.2 109.838 27.086 109.574 27.008C109.31 26.93 109.046 26.855 108.782 26.783C108.194 26.651 107.654 26.471 107.162 26.243C106.676 26.009 106.289 25.712 106.001 25.352C105.713 24.986 105.569 24.539 105.569 24.011C105.569 23.435 105.725 22.937 106.037 22.517C106.349 22.091 106.757 21.764 107.261 21.536C107.771 21.308 108.314 21.194 108.89 21.194C109.61 21.194 110.27 21.347 110.87 21.653C111.47 21.959 111.929 22.379 112.247 22.913L110.762 23.795C110.672 23.615 110.537 23.453 110.357 23.309C110.177 23.165 109.973 23.051 109.745 22.967C109.517 22.877 109.28 22.826 109.034 22.814C108.728 22.802 108.443 22.838 108.179 22.922C107.921 23 107.714 23.126 107.558 23.3C107.402 23.474 107.324 23.696 107.324 23.966C107.324 24.23 107.417 24.428 107.603 24.56C107.789 24.686 108.023 24.788 108.305 24.866C108.593 24.944 108.887 25.031 109.187 25.127C109.721 25.295 110.222 25.502 110.69 25.748C111.158 25.988 111.536 26.285 111.824 26.639C112.112 26.993 112.25 27.425 112.238 27.935C112.238 28.499 112.067 28.994 111.725 29.42C111.389 29.846 110.951 30.17 110.411 30.392C109.871 30.614 109.298 30.707 108.692 30.671ZM116.479 30.671C116.005 30.641 115.543 30.545 115.093 30.383C114.643 30.221 114.247 30.002 113.905 29.726C113.569 29.444 113.317 29.114 113.149 28.736L114.742 28.052C114.82 28.214 114.955 28.373 115.147 28.529C115.345 28.685 115.576 28.814 115.84 28.916C116.104 29.012 116.38 29.06 116.668 29.06C116.95 29.06 117.211 29.021 117.451 28.943C117.697 28.859 117.898 28.733 118.054 28.565C118.21 28.397 118.288 28.196 118.288 27.962C118.288 27.698 118.198 27.494 118.018 27.35C117.844 27.2 117.625 27.086 117.361 27.008C117.097 26.93 116.833 26.855 116.569 26.783C115.981 26.651 115.441 26.471 114.949 26.243C114.463 26.009 114.076 25.712 113.788 25.352C113.5 24.986 113.356 24.539 113.356 24.011C113.356 23.435 113.512 22.937 113.824 22.517C114.136 22.091 114.544 21.764 115.048 21.536C115.558 21.308 116.101 21.194 116.677 21.194C117.397 21.194 118.057 21.347 118.657 21.653C119.257 21.959 119.716 22.379 120.034 22.913L118.549 23.795C118.459 23.615 118.324 23.453 118.144 23.309C117.964 23.165 117.76 23.051 117.532 22.967C117.304 22.877 117.067 22.826 116.821 22.814C116.515 22.802 116.23 22.838 115.966 22.922C115.708 23 115.501 23.126 115.345 23.3C115.189 23.474 115.111 23.696 115.111 23.966C115.111 24.23 115.204 24.428 115.39 24.56C115.576 24.686 115.81 24.788 116.092 24.866C116.38 24.944 116.674 25.031 116.974 25.127C117.508 25.295 118.009 25.502 118.477 25.748C118.945 25.988 119.323 26.285 119.611 26.639C119.899 26.993 120.037 27.425 120.025 27.935C120.025 28.499 119.854 28.994 119.512 29.42C119.176 29.846 118.738 30.17 118.198 30.392C117.658 30.614 117.085 30.707 116.479 30.671ZM125.403 30.734C124.575 30.734 123.819 30.521 123.135 30.095C122.457 29.669 121.914 29.099 121.506 28.385C121.104 27.665 120.903 26.87 120.903 26C120.903 25.34 121.02 24.725 121.254 24.155C121.488 23.579 121.809 23.075 122.217 22.643C122.631 22.205 123.111 21.863 123.657 21.617C124.203 21.371 124.785 21.248 125.403 21.248C126.093 21.248 126.726 21.392 127.302 21.68C127.878 21.962 128.37 22.355 128.778 22.859C129.186 23.357 129.486 23.933 129.678 24.587C129.87 25.235 129.927 25.925 129.849 26.657H122.91C122.988 27.071 123.138 27.446 123.36 27.782C123.588 28.112 123.876 28.373 124.224 28.565C124.578 28.757 124.971 28.856 125.403 28.862C125.859 28.862 126.273 28.748 126.645 28.52C127.023 28.292 127.332 27.977 127.572 27.575L129.471 28.016C129.111 28.814 128.568 29.468 127.842 29.978C127.116 30.482 126.303 30.734 125.403 30.734ZM122.847 25.226H127.959C127.899 24.794 127.746 24.404 127.5 24.056C127.26 23.702 126.957 23.423 126.591 23.219C126.231 23.009 125.835 22.904 125.403 22.904C124.977 22.904 124.581 23.006 124.215 23.21C123.855 23.414 123.555 23.693 123.315 24.047C123.081 24.395 122.925 24.788 122.847 25.226ZM134.075 30.671C133.601 30.641 133.139 30.545 132.689 30.383C132.239 30.221 131.843 30.002 131.501 29.726C131.165 29.444 130.913 29.114 130.745 28.736L132.338 28.052C132.416 28.214 132.551 28.373 132.743 28.529C132.941 28.685 133.172 28.814 133.436 28.916C133.7 29.012 133.976 29.06 134.264 29.06C134.546 29.06 134.807 29.021 135.047 28.943C135.293 28.859 135.494 28.733 135.65 28.565C135.806 28.397 135.884 28.196 135.884 27.962C135.884 27.698 135.794 27.494 135.614 27.35C135.44 27.2 135.221 27.086 134.957 27.008C134.693 26.93 134.429 26.855 134.165 26.783C133.577 26.651 133.037 26.471 132.545 26.243C132.059 26.009 131.672 25.712 131.384 25.352C131.096 24.986 130.952 24.539 130.952 24.011C130.952 23.435 131.108 22.937 131.42 22.517C131.732 22.091 132.14 21.764 132.644 21.536C133.154 21.308 133.697 21.194 134.273 21.194C134.993 21.194 135.653 21.347 136.253 21.653C136.853 21.959 137.312 22.379 137.63 22.913L136.145 23.795C136.055 23.615 135.92 23.453 135.74 23.309C135.56 23.165 135.356 23.051 135.128 22.967C134.9 22.877 134.663 22.826 134.417 22.814C134.111 22.802 133.826 22.838 133.562 22.922C133.304 23 133.097 23.126 132.941 23.3C132.785 23.474 132.707 23.696 132.707 23.966C132.707 24.23 132.8 24.428 132.986 24.56C133.172 24.686 133.406 24.788 133.688 24.866C133.976 24.944 134.27 25.031 134.57 25.127C135.104 25.295 135.605 25.502 136.073 25.748C136.541 25.988 136.919 26.285 137.207 26.639C137.495 26.993 137.633 27.425 137.621 27.935C137.621 28.499 137.45 28.994 137.108 29.42C136.772 29.846 136.334 30.17 135.794 30.392C135.254 30.614 134.681 30.707 134.075 30.671ZM141.862 30.671C141.388 30.641 140.926 30.545 140.476 30.383C140.026 30.221 139.63 30.002 139.288 29.726C138.952 29.444 138.7 29.114 138.532 28.736L140.125 28.052C140.203 28.214 140.338 28.373 140.53 28.529C140.728 28.685 140.959 28.814 141.223 28.916C141.487 29.012 141.763 29.06 142.051 29.06C142.333 29.06 142.594 29.021 142.834 28.943C143.08 28.859 143.281 28.733 143.437 28.565C143.593 28.397 143.671 28.196 143.671 27.962C143.671 27.698 143.581 27.494 143.401 27.35C143.227 27.2 143.008 27.086 142.744 27.008C142.48 26.93 142.216 26.855 141.952 26.783C141.364 26.651 140.824 26.471 140.332 26.243C139.846 26.009 139.459 25.712 139.171 25.352C138.883 24.986 138.739 24.539 138.739 24.011C138.739 23.435 138.895 22.937 139.207 22.517C139.519 22.091 139.927 21.764 140.431 21.536C140.941 21.308 141.484 21.194 142.06 21.194C142.78 21.194 143.44 21.347 144.04 21.653C144.64 21.959 145.099 22.379 145.417 22.913L143.932 23.795C143.842 23.615 143.707 23.453 143.527 23.309C143.347 23.165 143.143 23.051 142.915 22.967C142.687 22.877 142.45 22.826 142.204 22.814C141.898 22.802 141.613 22.838 141.349 22.922C141.091 23 140.884 23.126 140.728 23.3C140.572 23.474 140.494 23.696 140.494 23.966C140.494 24.23 140.587 24.428 140.773 24.56C140.959 24.686 141.193 24.788 141.475 24.866C141.763 24.944 142.057 25.031 142.357 25.127C142.891 25.295 143.392 25.502 143.86 25.748C144.328 25.988 144.706 26.285 144.994 26.639C145.282 26.993 145.42 27.425 145.408 27.935C145.408 28.499 145.237 28.994 144.895 29.42C144.559 29.846 144.121 30.17 143.581 30.392C143.041 30.614 142.468 30.707 141.862 30.671ZM146.949 30.5V21.5H148.821V22.454C149.133 22.082 149.514 21.788 149.964 21.572C150.42 21.356 150.912 21.248 151.44 21.248C152.082 21.248 152.673 21.404 153.213 21.716C153.753 22.022 154.182 22.43 154.5 22.94C154.818 22.43 155.241 22.022 155.769 21.716C156.303 21.404 156.891 21.248 157.533 21.248C158.199 21.248 158.805 21.41 159.351 21.734C159.897 22.058 160.332 22.493 160.656 23.039C160.98 23.585 161.142 24.191 161.142 24.857V30.5H159.27V25.334C159.27 24.938 159.174 24.575 158.982 24.245C158.79 23.915 158.532 23.648 158.208 23.444C157.884 23.24 157.524 23.138 157.128 23.138C156.732 23.138 156.372 23.234 156.048 23.426C155.724 23.618 155.466 23.879 155.274 24.209C155.082 24.539 154.986 24.914 154.986 25.334V30.5H153.114V25.334C153.114 24.914 153.018 24.539 152.826 24.209C152.634 23.879 152.373 23.618 152.043 23.426C151.719 23.234 151.359 23.138 150.963 23.138C150.573 23.138 150.213 23.24 149.883 23.444C149.559 23.648 149.301 23.915 149.109 24.245C148.917 24.575 148.821 24.938 148.821 25.334V30.5H146.949ZM166.729 30.734C165.901 30.734 165.145 30.521 164.461 30.095C163.783 29.669 163.24 29.099 162.832 28.385C162.43 27.665 162.229 26.87 162.229 26C162.229 25.34 162.346 24.725 162.58 24.155C162.814 23.579 163.135 23.075 163.543 22.643C163.957 22.205 164.437 21.863 164.983 21.617C165.529 21.371 166.111 21.248 166.729 21.248C167.419 21.248 168.052 21.392 168.628 21.68C169.204 21.962 169.696 22.355 170.104 22.859C170.512 23.357 170.812 23.933 171.004 24.587C171.196 25.235 171.253 25.925 171.175 26.657H164.236C164.314 27.071 164.464 27.446 164.686 27.782C164.914 28.112 165.202 28.373 165.55 28.565C165.904 28.757 166.297 28.856 166.729 28.862C167.185 28.862 167.599 28.748 167.971 28.52C168.349 28.292 168.658 27.977 168.898 27.575L170.797 28.016C170.437 28.814 169.894 29.468 169.168 29.978C168.442 30.482 167.629 30.734 166.729 30.734ZM164.173 25.226H169.285C169.225 24.794 169.072 24.404 168.826 24.056C168.586 23.702 168.283 23.423 167.917 23.219C167.557 23.009 167.161 22.904 166.729 22.904C166.303 22.904 165.907 23.006 165.541 23.21C165.181 23.414 164.881 23.693 164.641 24.047C164.407 24.395 164.251 24.788 164.173 25.226ZM180.766 24.857V30.5H178.894V25.316C178.894 24.914 178.795 24.548 178.597 24.218C178.405 23.888 178.144 23.627 177.814 23.435C177.49 23.237 177.124 23.138 176.716 23.138C176.32 23.138 175.957 23.237 175.627 23.435C175.297 23.627 175.033 23.888 174.835 24.218C174.637 24.548 174.538 24.914 174.538 25.316V30.5H172.666V21.5H174.538V22.454C174.85 22.082 175.234 21.788 175.69 21.572C176.146 21.356 176.638 21.248 177.166 21.248C177.832 21.248 178.438 21.41 178.984 21.734C179.53 22.058 179.962 22.493 180.28 23.039C180.604 23.585 180.766 24.191 180.766 24.857ZM187.314 23.372H185.424L185.415 30.5H183.543L183.552 23.372H182.121V21.5H183.552L183.543 18.674H185.415L185.424 21.5H187.314V23.372Z" fill="white"/>
<defs>
<linearGradient id="paint0_linear_172_5114" x1="3.95122" y1="50.6341" x2="50.1951" y2="-3.21951" gradientUnits="userSpaceOnUse">
<stop stop-color="#A685FA"/>
<stop offset="0.323723" stop-color="#A685FA" stop-opacity="0"/>
</linearGradient>
<linearGradient id="paint1_linear_172_5114" x1="47.8537" y1="-6.14634" x2="3.95122" y2="48" gradientUnits="userSpaceOnUse">
<stop stop-color="#A685FA"/>
<stop offset="0.576615" stop-color="#A685FA" stop-opacity="0"/>
</linearGradient>
<linearGradient id="paint2_linear_172_5114" x1="2.08064" y1="8.03226" x2="41.8548" y2="42" gradientUnits="userSpaceOnUse">
<stop stop-color="#A685FA"/>
<stop offset="0.323723" stop-color="#A685FA" stop-opacity="0"/>
</linearGradient>
<linearGradient id="paint3_linear_172_5114" x1="49.1129" y1="50.129" x2="7.30645" y2="20.5161" gradientUnits="userSpaceOnUse">
<stop stop-color="#A685FA"/>
<stop offset="0.576615" stop-color="#A685FA" stop-opacity="0"/>
</linearGradient>
</defs>
</svg>
